<svg width="71" height="28" viewBox="0 0 71 28" xmlns="http://www.w3.org/2000/svg"><g id="Page-1" stroke="none" stroke-width="1" fill="none" fill-rule="evenodd"><g id="Artboard-1" transform="translate(-33 -5094)"><g id="Imported-Layers-Copy" transform="translate(33 5094)"><path d="M68.3429053,1.6625 L57.6753745,20.2498333 L47.2374979,1.66279167 L44.5389136,1.66279167 L44.5389136,26.5690833 L47.5726296,26.5690833 L47.5726296,8.53941667 L57.4445514,26.0052917 L57.8945103,26.0052917 L67.9323909,8.47729167 L67.9323909,26.5690833 L70.9669835,26.5690833 L70.9669835,1.6625 L68.3429053,1.6625" id="Fill-1" fill="#FFF"/><path d="M26.0046996,23.23475 L26.0046996,14.847 L33.7267531,14.847 C36.0601111,14.847 37.8549794,16.568125 37.8549794,19.0402917 C37.8549794,21.371875 36.1314033,23.23475 33.7267531,23.23475 L26.0046996,23.23475 L26.0046996,23.23475 Z M33.1388848,26.6084583 C37.5890947,26.6084583 40.9970947,23.58825 40.9970947,19.0064583 C40.9970947,14.5635 37.7649877,11.4762083 33.174823,11.4762083 L26.0046996,11.4762083 L26.0046996,5.05720833 L37.7997572,5.05720833 L37.7997572,1.686125 L22.8707654,1.686125 L22.8707654,26.6084583 L33.1388848,26.6084583 L33.1388848,26.6084583 Z" id="Fill-2" fill="#FFF"/><path d="M0.144337449,21.3077083 C0.144337449,17.7709583 3.01560082,14.903875 6.55917284,14.903875 C10.1018683,14.903875 12.9743004,17.7709583 12.9743004,21.3077083 C12.9743004,24.84475 10.1018683,27.7118333 6.55917284,27.7118333 C3.01560082,27.7118333 0.144337449,24.84475 0.144337449,21.3077083" id="Fill-3" fill="#31C972"/><path d="M0.144337449,6.69491667 C0.144337449,10.2316667 3.01560082,13.09875 6.55917284,13.09875 C10.1018683,13.09875 12.9743004,10.2316667 12.9743004,6.69491667 C12.9743004,3.157875 10.1018683,0.290791667 6.55917284,0.290791667 C3.01560082,0.290791667 0.144337449,3.157875 0.144337449,6.69491667" id="Fill-4" fill="#31C972"/></g></g></g></svg>