<svg width="208" height="32" viewBox="0 0 208 32" xmlns="http://www.w3.org/2000/svg"><g id="Page-1" stroke="none" stroke-width="1" fill="none" fill-rule="evenodd"><g id="new-logo" fill-rule="nonzero"><path d="M144.903,9.63 L147.517,9.63 L147.517,24.293 L144.903,24.293 L144.903,9.631 L144.903,9.63 Z M151.339,16.815 L158.394,24.293 L154.768,24.293 L148.138,16.977 L154.344,9.631 L157.774,9.631 L151.339,16.815 Z M187.902,12.237 L182.207,12.237 L182.043,14.714 C181.389,23.054 179.703,24.489 176.667,24.489 L176.469,21.947 C177.579,22.046 179.135,20.97 179.494,14.193 L179.756,9.631 L190.515,9.631 L190.515,24.293 L187.902,24.293 L187.902,12.237 Z M122.274,12.237 L116.578,12.237 L116.414,14.714 C115.761,23.054 114.074,24.489 111.038,24.489 L110.841,21.947 C111.951,22.046 113.507,20.97 113.866,14.193 L114.127,9.631 L124.887,9.631 L124.887,24.293 L122.274,24.293 L122.274,12.237 Z M141.812,17.08 C141.812,13.01 139.238,9.546 135.068,9.546 C130.698,9.546 127.978,13.066 127.978,17.109 C127.978,21.727 131.161,24.617 135.474,24.617 C138.194,24.617 140.071,23.081 140.832,22.073 L139.32,20.435 C138.516,21.281 137.769,22.01 135.62,22.01 C132.6,22.01 130.93,20.602 130.667,18.06 L141.725,18.06 C141.783,17.715 141.812,17.426 141.812,17.08 Z M130.842,15.456 C131.074,13.694 132.312,12.24 135.068,12.24 C137.929,12.24 138.86,13.725 139.005,15.456 L130.842,15.456 Z M88.828,9.625 L82.81,19.265 L77.003,9.625 L74.533,9.625 L74.533,24.292 L77.147,24.292 L77.147,14.864 L82.599,23.776 L83.01,23.776 L88.617,14.801 L88.617,24.291 L91.229,24.291 L91.229,9.626 L88.828,9.626 L88.828,9.625 Z M40.51,9.631 L40.51,24.293 L43.19,24.293 L51.026,14.038 L51.026,24.293 L53.709,24.293 L53.709,9.631 L51.026,9.631 L43.191,19.886 L43.191,9.63 L40.511,9.63 L40.51,9.631 Z M23.81,21.243 L23.81,13.574 L30.877,13.574 C33.012,13.574 34.654,15.148 34.654,17.408 C34.654,19.54 33.077,21.243 30.877,21.243 L23.81,21.243 Z M30.339,24.328 C34.411,24.328 37.529,21.566 37.529,17.378 C37.529,13.315 34.572,10.493 30.372,10.493 L23.81,10.493 L23.81,4.623 L34.603,4.623 L34.603,1.542 L20.943,1.542 L20.943,24.328 L30.338,24.328 L30.339,24.328 Z M64.108,9.306 C59.755,9.306 56.69,12.586 56.69,16.961 C56.69,21.335 59.755,24.616 64.108,24.616 C68.462,24.616 71.539,21.336 71.539,16.961 C71.539,12.587 68.462,9.306 64.109,9.306 L64.108,9.306 Z M64.118,21.932 C61.259,21.932 59.383,19.83 59.383,16.928 C59.383,14.085 61.259,11.986 64.117,11.986 C66.987,11.986 68.847,14.086 68.847,16.958 C68.847,19.83 66.973,21.932 64.117,21.932 L64.118,21.932 Z M101.63,9.306 C97.276,9.306 94.21,12.586 94.21,16.961 C94.21,21.335 97.276,24.616 101.63,24.616 C105.983,24.616 109.06,21.336 109.06,16.961 C109.06,12.587 105.983,9.306 101.63,9.306 Z M101.638,21.932 C98.78,21.932 96.904,19.83 96.904,16.928 C96.904,14.085 98.78,11.986 101.638,11.986 C104.508,11.986 106.368,14.086 106.368,16.958 C106.368,19.83 104.494,21.932 101.638,21.932 Z" id="Shape" fill="#FFF"/><path d="M6.02,13.626 C9.262,13.626 11.89,16.248 11.89,19.481 C11.89,22.715 9.262,25.337 6.02,25.337 C2.778,25.337 0.151,22.715 0.151,19.481 C0.151,16.248 2.778,13.626 6.021,13.626 L6.02,13.626 Z M6.02,11.976 C9.262,11.976 11.89,9.355 11.89,6.121 C11.89,2.887 9.262,0.266 6.02,0.266 C2.778,0.266 0.151,2.887 0.151,6.121 C0.151,9.355 2.778,11.976 6.021,11.976 L6.02,11.976 Z" id="Shape" fill="#31C972"/><path d="M196.083,16.96 C196.083,16.933 196.08,16.946 196.079,16.96 C196.08,16.973 196.082,16.986 196.083,16.96" id="Shape" fill="#FFF"/><path d="M205.305,9.626 L205.305,11.155 C204.845,10.087 203.107,9.306 200.908,9.306 C196.886,9.306 193.445,12.486 193.445,16.959 C193.445,21.432 196.886,24.614 200.908,24.613 C203.108,24.613 204.845,23.832 205.305,22.764 L205.305,24.293 L207.851,24.293 L207.851,9.626 L205.305,9.626 Z M193.445,16.959 C193.445,16.951 193.447,16.942 193.447,16.959 C193.447,16.976 193.446,16.968 193.446,16.959 L193.445,16.959 Z M205.218,19.447 C204.728,20.832 202.934,22.01 200.939,22.01 C198.021,22.01 196.084,19.824 196.077,16.974 L196.079,16.959 L196.077,16.945 C196.084,14.095 198.021,11.909 200.939,11.909 C202.934,11.909 204.727,13.087 205.219,14.471 L205.219,19.447 L205.218,19.447 Z M171.033,9.63 L171.033,19.384 C170.721,20.909 168.81,22.013 167.027,22.013 C165.017,22.013 163.221,20.656 163.221,18.226 L163.221,9.63 L160.644,9.63 L160.644,18.283 C160.644,22.8 164.025,24.645 167.027,24.645 C169.093,24.645 170.75,23.932 171.147,22.859 L171.147,25.099 C171.147,28.705 168.711,29.369 166.525,29.369 C164.627,29.369 163.333,28.739 162.083,27.439 L160.799,29.135 C161.933,30.858 164.227,31.932 166.803,31.932 C170.793,31.932 173.609,29.502 173.609,25.803 L173.609,9.631 L171.033,9.631 L171.033,9.63 Z" id="Shape" fill="#FFF"/></g></g></svg>