<svg width="32" height="32" viewBox="0 0 32 32" fill="none" xmlns="http://www.w3.org/2000/svg">
<path fill-rule="evenodd" clip-rule="evenodd" d="M30.5633 27.2011H8.06531H1.43673C1.14286 27.2011 0.946939 27.4008 0.587755 28H0V21.0097H0.587755C0.946939 21.6089 1.14286 21.8086 1.43673 21.8086H3.98367L12.2122 5.59778C12.4408 4.79889 12.049 4.59917 11.4939 4.49931V4H20.5061V4.49931C19.951 4.59917 19.5918 4.79889 19.7878 5.59778L28.0163 21.8086H30.5633C30.8571 21.8086 31.0531 21.6089 31.4122 21.0097H32V28H31.4122C31.0531 27.4008 30.8571 27.2011 30.5633 27.2011ZM20.8 21.8086L16 13.2205L11.2327 21.8086H20.8Z" fill="#5C3795"/>
</svg>
