<svg width="94" height="14" viewBox="0 0 94 14" fill="none" xmlns="http://www.w3.org/2000/svg">
<path fill-rule="evenodd" clip-rule="evenodd" d="M41.613 14L49.7398 0H53.3594L61.4862 14H56.8195L55.3171 11.3366H47.7366L46.2342 14H41.613ZM53.5187 7.99024L51.561 4.3252L49.5805 8.01301H53.5187V7.99024ZM0 14V10.6764H2.11707L7.26179 1.11545C7.58049 0.43252 7.89919 0.0227642 8.85529 0H11.0862C12.0195 0.0227642 12.361 0.43252 12.6797 1.11545L17.8244 10.6764H19.9415V14H0ZM12.8618 10.6764L9.94797 5.30407L7.05691 10.6764H12.8618ZM22.4455 14V0H26.8618V7.92195L34.8976 1.16098L36.2862 0H39.3138V14H34.8748V6.05528L26.8618 12.8163L25.4504 13.9772H22.4455V14ZM69.4537 6.98862C69.4537 8.92358 67.8829 10.4943 65.948 10.4943C64.013 10.4943 62.4423 8.92358 62.4423 6.98862C62.4423 5.05366 64.013 3.50569 65.948 3.50569C67.8602 3.50569 69.4537 5.05366 69.4537 6.98862ZM73.2781 14V0H77.7171L82.9756 7.05691C83.0894 7.1935 83.2943 7.1935 83.4081 7.05691L88.6667 0H93.1057V14H88.6667L88.6439 6.44228L83.5903 13.226C83.3171 13.5675 83.0211 13.5675 82.748 13.226L77.7171 6.46504V14H73.2781Z" fill="#52107F"/>
</svg>
