<svg width="100" height="28" viewBox="0 0 100 28" fill="none" xmlns="http://www.w3.org/2000/svg">
<path d="M0 11.1463L0.043736 15.2574L0.437351 15.2793L0.546687 15.1044L0.634159 14.9294L0.852835 14.7764H20.0962L20.3586 14.842L20.4898 14.9732L20.621 15.1481L21.0365 15.1918L21.1021 10.9714L20.6866 10.9495L20.4898 11.1026L20.3586 11.3432L20.2274 11.54L20.0525 11.6274H18.8716L13.3829 1.28411L13.3392 0.781158L13.4048 0.562487L13.536 0.475015L13.7328 0.453151L13.7765 0.125135L7.58802 0.103271V0.409415L7.80669 0.475015L7.95977 0.562487L8.0691 0.693686L8.04723 1.10917L2.79904 11.3432L2.6897 11.54L2.51476 11.6493L0.918434 11.693L0.677895 11.54L0.502955 11.2775L0.371747 11.1463H0Z" fill="#52107F"/>
<path d="M10.3866 5.87616L7.10645 11.6054L13.7323 11.5617L10.3866 5.87616Z" fill="#FFDD11"/>
<path d="M22.7207 14.7764V14.2735L23.0706 14.2079L23.2893 14.1204L23.5298 13.9674L23.6829 13.7487L23.7485 13.5081V1.2842L23.6829 1.0218L23.5517 0.82499L23.4205 0.715654H22.8738L22.8519 0.190831L29.3247 0.147095L29.3684 0.671918L29.0623 0.715654L28.8217 0.75939L28.6031 0.781254L28.45 0.912462L28.3406 1.13113V8.69729L36.8908 2.11517L36.869 1.2842L36.7815 1.06553L36.5628 0.934325L36.3004 0.82499L36.1036 0.75939L35.6444 0.715654L35.6225 0.147095H42.4014V0.628182L42.1609 0.671918L41.8985 0.781254L41.6579 0.868726L41.4393 1.0218L41.5923 13.027L41.7017 13.4425L41.8985 13.6612L42.1172 13.9674L42.4014 14.1642V14.7983H35.6225V14.2735L36.0161 14.1642L36.3004 14.0111L36.5191 13.8143L36.7378 13.6393L36.869 13.4863L36.8252 6.57614L28.3844 13.2457L28.3406 13.7487L28.45 13.9455L28.6468 14.0548L28.8655 14.1642L29.3684 14.2079V14.7764H22.7207Z" fill="#52107F"/>
<path d="M52.3511 8.52234H57.0963L54.5816 4.69553L52.3948 8.50047M44.1289 14.7764V14.0985H44.435H44.7849H45.0473L45.2442 13.8799L51.8044 1.89649V1.3498V1.10926H51.6513H51.4545H51.1484V0.628174H58.2772V1.08739H57.8398H57.6649L57.5555 1.30607V1.65595L57.7086 1.94023L64.7499 13.5519L64.9686 13.9236L65.2529 14.1204L65.3841 14.2516H65.6246H65.8433V15.017H58.5177V14.0985L58.7801 13.9673H58.9769H59.1956L59.3924 13.8143V13.0708L59.13 12.5241L58.9332 12.2617L58.6708 11.8899H50.6673L50.4049 12.1086L50.2081 12.4804L50.0331 12.874V13.2457V13.4425L50.2299 13.6175L50.3611 13.8143L50.6017 13.9236H50.7985V14.7327L44.1289 14.7764Z" fill="#52107F"/>
<path d="M77.7167 14.2295V14.7981H83.8833V14.2295L83.6647 14.0983L83.446 14.0108L83.2929 13.8578L83.1399 13.661L83.0524 13.4423L83.0086 6.79458L88.7161 14.6231L94.7078 6.46657V13.486L94.5328 13.661L94.3579 13.814L94.1611 13.9671L94.008 14.0327L93.8112 14.0983V14.7981H99.8903V14.0983L99.6498 13.9671L99.4967 13.7922L99.2999 13.6391L99.1687 13.3986L99.1469 1.26211L99.1687 1.04344L99.2999 0.890359L99.4311 0.759159L99.6061 0.671687L99.8466 0.606087L99.9997 0.584215V0.125H92.7397V0.606087L92.9584 0.649823L93.1552 0.671687L93.3301 0.824759L93.4176 0.955967L93.4394 1.39332L88.7817 7.97543L84.102 1.45892L84.0583 0.97783L84.1895 0.802895L84.3426 0.671687L84.4956 0.584215L84.6706 0.518615V0.125H77.498V0.649823H77.7167L77.9791 0.715423L78.1541 0.802895L78.3071 0.912231L78.4383 1.1309L78.5039 13.486L78.3071 13.7703L78.0885 13.9452L77.9354 14.0546L77.7167 14.2295Z" fill="#52107F"/>
<path d="M75.2675 7.69118C75.2675 8.55618 75.011 9.40175 74.5304 10.121C74.0499 10.8402 73.3668 11.4007 72.5677 11.7318C71.7685 12.0628 70.8892 12.1494 70.0408 11.9806C69.1924 11.8119 68.4131 11.3954 67.8015 10.7837C67.1898 10.1721 66.7733 9.39279 66.6045 8.54441C66.4358 7.69604 66.5224 6.81667 66.8534 6.01752C67.1844 5.21837 67.745 4.53533 68.4642 4.05476C69.1834 3.57419 70.029 3.31769 70.894 3.31769C72.0539 3.31769 73.1663 3.77847 73.9865 4.59866C74.8067 5.41885 75.2675 6.53126 75.2675 7.69118Z" fill="#52107F"/>
<path d="M2.97384 23.1953C2.97384 23.1953 2.86451 23.1953 2.7333 23.0423C2.56517 22.9292 2.36737 22.8683 2.16475 22.8673C2.03157 22.8607 1.89953 22.8948 1.78624 22.9652C1.67294 23.0355 1.58376 23.1386 1.53059 23.2609C1.39499 23.5858 1.33516 23.9373 1.35565 24.2887C1.33665 24.6117 1.3967 24.9345 1.53059 25.229C1.59686 25.3438 1.69263 25.4389 1.80798 25.5042C1.92333 25.5696 2.05405 25.6029 2.18661 25.6008C2.3725 25.6003 2.55447 25.5473 2.71144 25.4477C2.789 25.3864 2.87831 25.3418 2.97384 25.3165L3.19252 25.8632C3.19252 25.8632 3.19252 26.0162 2.99571 26.0818C2.69764 26.2346 2.36845 26.3169 2.03354 26.3224C1.09324 26.3224 0.174805 25.7976 0.174805 24.1356C0.174805 22.4737 1.11511 21.9489 2.09915 21.9489C2.45576 21.9375 2.80715 22.0368 3.10505 22.2332C3.25812 22.2332 3.30186 22.4081 3.30186 22.4518L2.99571 22.9985" fill="#52107F"/>
<path d="M6.56048 24.3763C6.56048 23.7421 6.56048 23.0205 5.86072 23.0205C5.16097 23.0205 5.18283 23.7421 5.18283 24.3763C5.18283 25.0104 5.18283 25.7539 5.86072 25.7539C6.53862 25.7539 6.56048 25.0104 6.56048 24.3763ZM5.90446 26.563C4.98603 26.563 4.11133 25.9289 4.11133 24.3763C4.11133 22.8237 4.98603 22.1895 5.90446 22.1895C6.8229 22.1895 7.71946 22.8237 7.71946 24.3763C7.71946 25.9289 6.77916 26.563 5.90446 26.563Z" fill="#52107F"/>
<path d="M9.86193 25.557H10.2774C10.5836 25.557 10.999 25.557 10.999 25.054C10.999 24.5511 10.518 24.5948 10.3867 24.5948H9.8182V25.557M9.8182 23.8295H10.2774C10.8022 23.8295 10.8678 23.5452 10.8678 23.3921C10.8678 23.239 10.4961 22.9985 10.2337 22.9985H9.8182V23.8295ZM8.89976 26.3223C8.79043 26.3223 8.76855 26.3223 8.76855 26.3223V22.3425C8.76855 22.3425 8.76856 22.2113 8.89976 22.2113H10.2774C10.7336 22.1632 11.1943 22.2388 11.6113 22.4299C11.7434 22.5186 11.8507 22.6394 11.9234 22.7809C11.9961 22.9224 12.0316 23.08 12.0268 23.239C12.0281 23.4417 11.9654 23.6396 11.8476 23.8045C11.7298 23.9695 11.5629 24.093 11.3708 24.1575C11.6023 24.1998 11.8103 24.3256 11.9554 24.5109C12.1005 24.6963 12.1726 24.9284 12.158 25.1634C12.1652 25.3374 12.129 25.5104 12.0527 25.6669C11.9763 25.8234 11.8622 25.9585 11.7207 26.0599C11.2892 26.2804 10.8032 26.3715 10.3211 26.3223H8.89976Z" fill="#52107F"/>
<path d="M14.4542 25.4696C14.6285 25.5869 14.8346 25.6479 15.0447 25.6445C15.1694 25.6506 15.2933 25.6208 15.4018 25.5589C15.5103 25.4969 15.5988 25.4052 15.6569 25.2947C15.7692 24.9493 15.8138 24.5854 15.7881 24.2231C15.8032 23.877 15.7357 23.5322 15.5913 23.2172C15.5533 23.1177 15.4832 23.0336 15.3922 22.9782C15.3011 22.9228 15.1943 22.8992 15.0884 22.9111C14.9677 22.9179 14.8496 22.9484 14.7408 23.001C14.632 23.0535 14.5346 23.127 14.4542 23.2172V25.404M14.4542 27.5907C14.4542 27.5907 14.4542 27.7219 14.2793 27.7438L13.5139 27.8969H13.4046C13.4046 27.8969 13.4046 27.8969 13.4046 27.7438V23.6983C13.4221 23.3088 13.3853 22.9187 13.2953 22.5394C13.2953 22.5394 13.2953 22.5393 13.2953 22.4081C13.2818 22.3729 13.2818 22.334 13.2953 22.2988L13.9294 22.102C14.0606 22.102 14.1481 22.102 14.2356 22.2769C14.323 22.4519 14.2356 22.43 14.2356 22.5175C14.3668 22.3769 14.5261 22.2653 14.7031 22.19C14.8801 22.1147 15.071 22.0772 15.2633 22.0801C15.4727 22.0622 15.6831 22.1016 15.8718 22.1941C16.0605 22.2865 16.2206 22.4285 16.3348 22.605C16.6227 23.1017 16.7595 23.6717 16.7284 24.245C16.7798 24.8299 16.6335 25.415 16.313 25.9069C16.1814 26.1003 16.0005 26.255 15.789 26.355C15.5775 26.4549 15.3432 26.4965 15.1103 26.4755C14.8405 26.4704 14.5767 26.395 14.3449 26.2568L14.4542 27.5907Z" fill="#52107F"/>
<path d="M20.14 23.7857C20.16 23.6479 20.16 23.508 20.14 23.3702C20.14 23.0422 19.9213 22.8454 19.5714 22.8454C19.2215 22.8454 18.9154 23.2171 18.8716 23.7857H20.1837M18.8716 24.5511C18.8716 25.1634 19.0903 25.6007 19.7901 25.6007C20.0773 25.5904 20.3597 25.5235 20.621 25.4039H20.8397L21.0584 25.9069C21.0563 25.9457 21.0427 25.9831 21.0193 26.0142C20.996 26.0454 20.9639 26.0689 20.9272 26.0818C20.5238 26.3204 20.0618 26.4416 19.5933 26.4317C19.3159 26.4434 19.0396 26.3921 18.7849 26.2817C18.5302 26.1713 18.3039 26.0046 18.1229 25.7942C17.9419 25.5837 17.811 25.335 17.7399 25.0666C17.6689 24.7983 17.6595 24.5174 17.7127 24.2449C17.7127 22.9329 18.3687 22.0582 19.5277 22.0582C19.9104 22.039 20.2862 22.1662 20.5786 22.4139C20.871 22.6616 21.0582 23.0114 21.1021 23.3921C21.1392 23.6825 21.1392 23.9764 21.1021 24.2668C21.1021 24.5292 21.1021 24.5292 20.9053 24.5292L18.8716 24.5511Z" fill="#52107F"/>
<path d="M22.4147 26.3225C22.2397 26.3225 22.2616 26.3225 22.2616 26.3225L22.4584 22.4519C22.4584 22.2989 22.5678 22.3207 22.6115 22.3207H23.3987C23.4244 22.3029 23.4549 22.2933 23.4862 22.2933C23.5175 22.2933 23.548 22.3029 23.5737 22.3207L24.2078 24.092C24.3038 24.3773 24.377 24.6698 24.4265 24.9667C24.4891 24.6706 24.5694 24.3785 24.667 24.092L25.3012 22.3207C25.3012 22.3207 25.4105 22.3207 25.4543 22.3207H26.154C26.154 22.3207 26.3071 22.3207 26.3071 22.4519L26.5258 26.3225C26.5258 26.3225 26.5258 26.3225 26.3727 26.3225H25.8042H25.6511V23.6546C25.6511 23.9389 25.4761 24.3107 25.3668 24.5949L24.9295 25.8414C24.9192 25.8781 24.8955 25.9097 24.8632 25.93C24.8308 25.9502 24.7921 25.9576 24.7545 25.9507H24.3172C24.3172 25.9507 24.186 25.9507 24.1422 25.8414L23.683 24.5949C23.683 24.3107 23.4862 23.9389 23.4206 23.6546V26.3225C23.4206 26.4537 23.4206 26.3225 23.2675 26.3225H22.699" fill="#52107F"/>
<path d="M29.8271 23.7857C29.8271 23.567 29.8271 23.4358 29.8271 23.3702C29.8271 23.3046 29.5865 22.8454 29.2585 22.8454C28.9305 22.8454 28.6025 23.2171 28.5369 23.7857H29.8489M28.5369 24.5511C28.5369 25.1634 28.7774 25.6007 29.4553 25.6007C29.7433 25.596 30.0268 25.5289 30.2863 25.4039C30.366 25.3919 30.4471 25.3919 30.5268 25.4039L30.7236 25.9069C30.7215 25.9457 30.7079 25.9831 30.6846 26.0142C30.6612 26.0454 30.6291 26.0689 30.5924 26.0818C30.1959 26.3176 29.7417 26.4387 29.2804 26.4317C29.0013 26.4468 28.7224 26.3981 28.4649 26.2892C28.2075 26.1803 27.9783 26.0141 27.7948 25.8032C27.6113 25.5923 27.4784 25.3423 27.4062 25.0723C27.3339 24.8022 27.3243 24.5193 27.3779 24.2449C27.3779 22.9329 28.0339 22.0582 29.1929 22.0582C29.5757 22.039 29.9514 22.1662 30.2438 22.4139C30.5362 22.6616 30.7234 23.0114 30.7674 23.3921C30.8044 23.6825 30.8044 23.9764 30.7674 24.2668C30.7674 24.5292 30.7674 24.5292 30.5924 24.5292L28.5369 24.5511Z" fill="#52107F"/>
<path d="M34.3322 22.386C34.3322 22.386 34.3322 22.2767 34.4853 22.2548L35.2506 22.0799H35.3819V26.1035H34.5509V24.5947H33.3482V26.2128C33.3482 26.2128 33.3482 26.2128 33.2388 26.2128H32.1455H32.0361V22.386C32.0361 22.386 32.0361 22.2767 32.2985 22.2111L32.9546 22.0799H33.0858V23.6543H34.3322V22.2767" fill="#52107F"/>
<path d="M39.0113 22.386C39.0113 22.386 39.0113 22.2767 39.1643 22.2548L39.9297 22.0799H40.0609V26.1035H39.2299V24.5947H38.0272V26.2128C38.0272 26.2128 38.0272 26.2128 37.9179 26.2128H37.0869V22.386C37.0869 22.386 37.0869 22.2767 37.3493 22.2111L38.0054 22.0799H38.1366V23.6543H39.3393V22.2767" fill="#52107F"/>
<path d="M43.319 24.3759C42.7286 24.3759 42.1382 24.4853 42.1382 25.032C42.1319 25.1063 42.1415 25.1812 42.1665 25.2516C42.1914 25.3219 42.2311 25.3862 42.2828 25.44C42.3346 25.4938 42.3972 25.536 42.4665 25.5636C42.5359 25.5913 42.6103 25.6039 42.6849 25.6005C42.8055 25.5937 42.9237 25.5632 43.0325 25.5106C43.1413 25.4581 43.2387 25.3846 43.319 25.2944V24.3759ZM43.7783 26.3659C43.7783 26.3659 43.7783 26.3659 43.6033 26.3659C43.5433 26.2407 43.4992 26.1084 43.4721 25.9723C43.3368 26.1298 43.1691 26.2563 42.9804 26.3431C42.7917 26.4299 42.5865 26.475 42.3787 26.4752C42.2106 26.485 42.0423 26.4588 41.8851 26.3982C41.728 26.3377 41.5856 26.2442 41.4675 26.1241C41.3495 26.0039 41.2585 25.86 41.2007 25.7018C41.1429 25.5436 41.1195 25.3748 41.1323 25.2069C41.1253 24.9959 41.1694 24.7863 41.2608 24.5959C41.3522 24.4056 41.4881 24.2401 41.6571 24.1135C42.1696 23.8512 42.7453 23.7375 43.319 23.7855V23.5231C43.3647 23.3734 43.3647 23.2136 43.319 23.0639C43.2618 23.0079 43.193 22.9652 43.1174 22.9387C43.0418 22.9123 42.9614 22.9027 42.8817 22.9108C42.6516 22.9134 42.4231 22.9503 42.2038 23.0201L41.8102 23.1513L41.6353 22.6484C41.6353 22.5172 41.6352 22.4953 41.8102 22.386C42.2164 22.2377 42.646 22.1636 43.0785 22.1673C43.3142 22.1358 43.554 22.1678 43.7732 22.26C43.9923 22.3523 44.1828 22.5015 44.325 22.6921C44.4534 22.9418 44.5137 23.2208 44.4999 23.5012V25.0976C44.4825 25.3808 44.5273 25.6644 44.6311 25.9285C44.645 26.0154 44.645 26.104 44.6311 26.1909L43.7783 26.3659Z" fill="#52107F"/>
<path d="M47.6492 22.9987H47.1681C46.6214 22.9987 46.5558 23.3486 46.5558 23.5016C46.5558 23.6547 47.015 24.0046 47.2118 24.0046H47.6492V22.9987ZM47.6492 26.3226V24.9012H47.2556C46.9057 24.9012 46.8401 25.0324 46.7745 25.3166L46.6433 25.7759C46.5933 26.0166 46.462 26.2327 46.2715 26.3882C46.0469 26.5219 45.7894 26.5901 45.528 26.585C45.3531 26.585 45.3531 26.585 45.3312 26.4538L45.2656 25.8196C45.2656 25.6447 45.2656 25.6447 45.2656 25.6228H45.4406C45.6155 25.6228 45.6592 25.4916 45.7248 25.2948V25.1198C45.741 24.9777 45.7967 24.8429 45.8856 24.7308C45.9745 24.6187 46.0931 24.5338 46.2278 24.4857C46.0287 24.4321 45.8476 24.3264 45.703 24.1795C45.5468 23.9714 45.4624 23.7181 45.4624 23.4579C45.4598 23.2868 45.4958 23.1174 45.5677 22.9621C45.6396 22.8069 45.7457 22.6699 45.8779 22.5613C46.1989 22.3421 46.5831 22.2345 46.9713 22.2552H48.5457C48.5457 22.2552 48.5457 22.2552 48.5457 22.3864V26.257L47.6492 26.3226Z" fill="#52107F"/>
<path d="M53.6849 23.0422C53.7106 23.8609 53.6148 24.6789 53.4006 25.4695C53.3026 25.7326 53.1265 25.9595 52.8959 26.1197C52.6653 26.2799 52.3912 26.3659 52.1105 26.366C52.0903 26.3691 52.0698 26.3682 52.05 26.3632C52.0303 26.3583 52.0117 26.3494 51.9954 26.3372C51.9791 26.325 51.9654 26.3096 51.9551 26.2921C51.9449 26.2745 51.9382 26.255 51.9355 26.2348L51.8262 25.7319C51.8262 25.6007 51.8262 25.6007 51.9355 25.5788H52.0886C52.3729 25.5788 52.5478 25.3601 52.6353 24.9447C52.6791 24.2164 52.6791 23.4862 52.6353 22.7579V22.3862C52.6353 22.3862 52.6353 22.255 52.7665 22.255H55.3031C55.3212 22.2508 55.34 22.2513 55.3579 22.2564C55.3757 22.2615 55.392 22.271 55.4051 22.2842C55.4182 22.2973 55.4278 22.3135 55.4329 22.3314C55.438 22.3492 55.4385 22.3681 55.4343 22.3862V26.2567C55.4343 26.2567 55.4343 26.2567 55.3031 26.2567H54.494C54.3847 26.2567 54.3628 26.2567 54.3628 26.2567V23.0422H53.6412" fill="#52107F"/>
<path d="M58.7141 24.3763C58.1455 24.3763 57.5551 24.4856 57.5551 25.0323C57.5488 25.1067 57.5585 25.1815 57.5834 25.2519C57.6084 25.3223 57.648 25.3865 57.6998 25.4403C57.7515 25.4941 57.8141 25.5363 57.8835 25.564C57.9528 25.5916 58.0272 25.6042 58.1018 25.6008C58.2197 25.5962 58.3354 25.5665 58.4409 25.5137C58.5465 25.461 58.6396 25.3863 58.7141 25.2947V24.3763ZM59.1952 26.3662C59.1952 26.3662 59.1952 26.3662 59.0202 26.3662L58.8672 25.9726C58.7349 26.1337 58.5677 26.2626 58.3783 26.3498C58.1889 26.4369 57.9822 26.4799 57.7738 26.4755C57.6074 26.4822 57.4416 26.4535 57.2871 26.3916C57.1325 26.3296 56.9929 26.2356 56.8772 26.1158C56.7616 25.9961 56.6726 25.8532 56.6161 25.6966C56.5595 25.54 56.5367 25.3732 56.5492 25.2072C56.5397 24.9981 56.5804 24.7897 56.6679 24.5995C56.7554 24.4093 56.8872 24.2427 57.0522 24.1138C57.5658 23.8548 58.1406 23.7413 58.7141 23.7858V23.5234C58.7626 23.3742 58.7626 23.2134 58.7141 23.0642C58.6527 23.0077 58.58 22.9648 58.5009 22.9384C58.4217 22.9121 58.3379 22.9028 58.2549 22.9111C58.0249 22.9156 57.7967 22.9524 57.577 23.0205L57.1834 23.1517L57.0084 22.6487C57.0084 22.5175 57.0084 22.4957 57.1834 22.3863C57.5711 22.2565 57.9772 22.1901 58.3861 22.1895C58.6214 22.1624 58.8598 22.1965 59.0781 22.2884C59.2965 22.3804 59.4874 22.5271 59.6325 22.7143C59.7509 22.9675 59.8107 23.244 59.8075 23.5234V25.1198C59.7901 25.403 59.8349 25.6866 59.9387 25.9507C59.9387 26.1038 59.9387 26.1694 59.9387 26.2131L59.1952 26.3662Z" fill="#52107F"/>
<path d="M63.3716 24.3763C63.3716 23.8514 63.3716 23.1298 62.6937 23.1298C62.0158 23.1298 61.9939 23.8514 61.9939 24.3763C61.9939 24.9011 61.9939 25.6664 62.6937 25.6664C63.3935 25.6664 63.3716 24.9011 63.3716 24.3763ZM61.6441 22.9986C61.7298 22.769 61.8814 22.5699 62.0797 22.426C62.2781 22.2821 62.5145 22.1998 62.7593 22.1895C63.7433 22.1895 64.3994 22.9549 64.3994 24.3763C64.3994 25.7976 63.5247 26.563 62.6062 26.563C62.2757 26.5743 61.9493 26.4867 61.6688 26.3114C61.3883 26.1361 61.1665 25.881 61.0318 25.579C60.8089 25.0393 60.7116 24.4561 60.7475 23.8733C60.7172 23.3193 60.7838 22.7643 60.9443 22.2332C61.172 21.6267 61.6269 21.1325 62.2126 20.8556L63.7871 20.134C63.7871 20.134 63.9839 20.134 64.0276 20.134L64.3119 20.7463C64.3119 20.7463 64.3119 20.8993 64.3119 20.9649L62.5844 21.6866C62.3305 21.785 62.1086 21.9513 61.9428 22.1672C61.777 22.3832 61.6737 22.6405 61.6441 22.9111V22.9986Z" fill="#52107F"/>
<path d="M67.8987 24.3763C67.8987 23.7421 67.8987 23.0205 67.2208 23.0205C66.5429 23.0205 66.5211 23.7421 66.5211 24.3763C66.5211 25.0104 66.5211 25.7539 67.2208 25.7539C67.9206 25.7539 67.8987 25.0104 67.8987 24.3763ZM67.1334 26.563C66.2149 26.563 65.3184 25.9289 65.3184 24.3763C65.3184 22.8237 66.2149 22.1895 67.1334 22.1895C68.0518 22.1895 68.9265 22.8237 68.9265 24.3763C68.9265 25.9289 68.1174 26.563 67.1334 26.563Z" fill="#52107F"/>
<path d="M71.2664 25.4696C71.4419 25.5844 71.6472 25.6452 71.8569 25.6445C71.9816 25.6506 72.1055 25.6208 72.214 25.5588C72.3225 25.4969 72.411 25.4052 72.4691 25.2946C72.595 24.9524 72.6399 24.5856 72.6004 24.2231C72.6073 23.8797 72.5479 23.5381 72.4254 23.2172C72.3805 23.1181 72.3058 23.0353 72.2118 22.9805C72.1178 22.9256 72.009 22.9014 71.9006 22.9111C71.7799 22.9179 71.6618 22.9484 71.553 23.001C71.4442 23.0535 71.3468 23.127 71.2664 23.2172V25.404M71.2664 27.5907C71.2664 27.5907 71.2664 27.7219 71.1134 27.7438L70.348 27.8969C70.348 27.8969 70.348 27.8969 70.348 27.7438V23.6983C70.3758 23.3072 70.3313 22.9143 70.2168 22.5393C70.2168 22.5393 70.2168 22.5393 70.2168 22.4081C70.2168 22.2769 70.2168 22.4081 70.3261 22.2988L70.9603 22.102C71.0915 22.102 71.1571 22.102 71.2664 22.2769V22.5175C71.4002 22.3741 71.563 22.2609 71.744 22.1854C71.925 22.11 72.1201 22.0741 72.3161 22.0801C72.5228 22.0588 72.7314 22.0968 72.9173 22.1898C73.1032 22.2827 73.2587 22.4267 73.3657 22.6049C73.6638 23.0976 73.8013 23.6707 73.7593 24.245C73.8106 24.8298 73.6644 25.415 73.3438 25.9069C73.2141 26.0969 73.0368 26.2494 72.8295 26.3492C72.6222 26.449 72.3924 26.4925 72.163 26.4755C71.8859 26.4731 71.6144 26.3977 71.3758 26.2568L71.2664 27.5907Z" fill="#52107F"/>
<path d="M76.7112 24.3761C76.1427 24.3761 75.5304 24.4854 75.5304 25.0321C75.5274 25.1057 75.5394 25.1791 75.5655 25.248C75.5917 25.3169 75.6315 25.3798 75.6825 25.4329C75.7336 25.486 75.7949 25.5282 75.8627 25.557C75.9305 25.5859 76.0034 25.6007 76.077 25.6006C76.1982 25.5963 76.3171 25.5669 76.4263 25.5142C76.5355 25.4615 76.6325 25.3867 76.7112 25.2945V24.3761ZM77.1923 26.366C77.1923 26.366 77.083 26.366 77.0173 26.366C76.9512 26.2412 76.8998 26.1091 76.8643 25.9724C76.7513 26.1347 76.6052 26.2713 76.4356 26.3731C76.2659 26.4749 76.0767 26.5395 75.8802 26.5628C75.7139 26.5694 75.548 26.5408 75.3935 26.4788C75.239 26.4168 75.0993 26.3229 74.9837 26.2031C74.8681 26.0833 74.779 25.9405 74.7225 25.7839C74.666 25.6273 74.6432 25.4605 74.6557 25.2945C74.6462 25.0853 74.6869 24.8769 74.7744 24.6867C74.8619 24.4965 74.9936 24.33 75.1586 24.2011C75.6715 23.9399 76.2469 23.8263 76.8205 23.8731V23.6107C76.8585 23.46 76.8585 23.3022 76.8205 23.1515C76.7592 23.095 76.6865 23.0521 76.6073 23.0257C76.5282 22.9993 76.4443 22.99 76.3613 22.9984C76.1313 23.0028 75.9031 23.0396 75.6834 23.1077L75.2898 23.2389L75.1149 22.736C75.1149 22.6048 75.1149 22.5829 75.2898 22.4736C75.697 22.3288 76.126 22.2548 76.5581 22.2549C76.7938 22.2233 77.0336 22.2554 77.2528 22.3476C77.4719 22.4399 77.6625 22.5891 77.8046 22.7797C77.9378 23.0284 78.0055 23.3068 78.0014 23.5888V25.1851C77.9483 25.4596 77.9483 25.7417 78.0014 26.0161C78.0103 26.1034 78.0103 26.1913 78.0014 26.2785L77.1923 26.366Z" fill="#52107F"/>
<path d="M80.4724 26.2133C80.4724 26.2133 80.4724 26.2133 80.363 26.2133H79.5321H79.4227V23.0425H78.4824V22.4521V22.3209H81.5001C81.6751 22.3209 81.6532 22.3209 81.6313 22.4958L81.522 23.0425C81.522 23.0425 81.522 23.0425 81.3908 23.0425H80.4724V26.2133Z" fill="#52107F"/>
<path d="M84.6267 24.3763C84.6267 23.7421 84.6267 23.0205 83.9488 23.0205C83.2709 23.0205 83.2709 23.7421 83.2709 24.3763C83.2709 25.0104 83.2709 25.7539 83.9488 25.7539C84.6267 25.7539 84.6267 24.9011 84.6267 24.3763ZM83.9488 26.563C83.0304 26.563 82.1338 25.9289 82.1338 24.3763C82.1338 22.8237 83.0304 22.1895 83.9488 22.1895C84.8672 22.1895 85.7419 22.8237 85.7419 24.3763C85.7419 25.9289 84.911 26.563 83.9925 26.563H83.9488Z" fill="#52107F"/>
<path d="M88.0382 25.4695C88.2205 25.5873 88.4336 25.6482 88.6505 25.6445C88.7721 25.6489 88.8925 25.6183 88.9972 25.5563C89.1019 25.4943 89.1865 25.4034 89.241 25.2946C89.381 24.9559 89.4336 24.5874 89.394 24.2231C89.3946 23.8782 89.3278 23.5364 89.1972 23.2172C89.1562 23.1198 89.0855 23.0378 88.9952 22.9828C88.9049 22.9279 88.7996 22.9027 88.6943 22.911C88.4446 22.926 88.2101 23.0355 88.0382 23.2172V25.4039M88.0382 27.5907C88.0382 27.5907 88.0382 27.7219 87.8852 27.7437L87.1198 27.8968C87.1198 27.8968 87.1198 27.8968 87.1198 27.7437V23.6983C87.1476 23.3071 87.1031 22.9143 86.9886 22.5393C86.9823 22.4958 86.9823 22.4516 86.9886 22.4081C86.9752 22.3729 86.9752 22.3339 86.9886 22.2987L87.6228 22.1019C87.754 22.1019 87.8414 22.1019 87.9289 22.2769C87.9387 22.3568 87.9387 22.4375 87.9289 22.5174C88.0766 22.3941 88.2475 22.3015 88.4315 22.2452C88.6155 22.1888 88.809 22.1699 89.0004 22.1894C89.2072 22.1681 89.4157 22.2061 89.6016 22.2991C89.7875 22.392 89.9431 22.536 90.0501 22.7142C90.3219 23.2221 90.4641 23.7892 90.4641 24.3652C90.4641 24.9412 90.3219 25.5083 90.0501 26.0162C89.9185 26.2096 89.7376 26.3643 89.5261 26.4642C89.3146 26.5642 89.0803 26.6058 88.8473 26.5848C88.5705 26.5804 88.2995 26.5051 88.0601 26.3661L88.0382 27.5907Z" fill="#52107F"/>
<path d="M91.6025 22.3863C91.6025 22.3863 91.6025 22.277 91.7775 22.2551L92.5428 22.0802H92.674V23.8077C92.674 24.0482 92.674 24.5075 92.674 24.7043C92.9146 24.2232 93.0458 23.9608 93.1989 23.6983L94.008 22.277C94.008 22.1239 94.161 22.1458 94.2922 22.102L94.9701 21.9708H95.1013V25.9944C95.1013 25.9944 95.1013 25.9944 94.9701 25.9944H94.161C94.0517 25.9944 94.0298 25.9944 94.0298 25.9944V24.42C94.0298 24.2669 94.0298 24.0701 94.0298 23.5234C93.7237 24.1576 93.6144 24.3325 93.505 24.5293L92.7178 25.9944C92.7178 25.9944 92.7178 25.9944 92.5428 25.9944H91.7337H91.6025V22.3863Z" fill="#52107F"/>
<path d="M98.4476 22.9984H97.9665C97.4198 22.9984 97.3542 23.3483 97.3542 23.5014C97.3542 23.6545 97.8134 24.0044 98.0102 24.0044H98.4476V22.9984ZM98.5788 26.3223C98.4695 26.3223 98.4476 26.3223 98.4476 26.3223V24.9009H98.054C97.726 24.9009 97.6604 25.0321 97.5729 25.3164L97.4417 25.7756C97.3917 26.0163 97.2604 26.2325 97.0699 26.3879C96.8453 26.5216 96.5878 26.5898 96.3264 26.5847C96.1515 26.5847 96.1515 26.5847 96.1296 26.4535L95.9766 25.9287C95.9766 25.7537 95.9766 25.7537 95.9766 25.7319H96.1515C96.3264 25.7319 96.3702 25.6007 96.4358 25.4039V25.2289C96.4109 25.029 96.4658 24.8274 96.5886 24.6678C96.7114 24.5081 96.8922 24.4033 97.0918 24.3761C96.8841 24.3284 96.6944 24.2221 96.5451 24.07C96.389 23.8618 96.3046 23.6086 96.3046 23.3483C96.3019 23.1772 96.3379 23.0078 96.4098 22.8526C96.4818 22.6973 96.5878 22.5603 96.7201 22.4518C97.0289 22.2639 97.3868 22.1725 97.7478 22.1893H99.3223C99.3223 22.1893 99.4535 22.1893 99.4535 22.3206V26.1911C99.4535 26.1911 99.4535 26.1911 99.3223 26.1911L98.5788 26.3223Z" fill="#52107F"/>
</svg>
