<?xml version="1.0" encoding="utf-8"?>
<!-- Generator: Adobe Illustrator 19.1.0, SVG Export Plug-In . SVG Version: 6.00 Build 0)  -->
<svg version="1.1" id="Layer_1" xmlns="http://www.w3.org/2000/svg" xmlns:xlink="http://www.w3.org/1999/xlink" x="0px" y="0px"
	 viewBox="-239.2 330.4 220 140.9" style="enable-background:new -239.2 330.4 220 140.9;" xml:space="preserve">
<style type="text/css">
	.st0{fill:#FFFFFF;}
	.st1{fill:url(#SVGID_1_);}
	.st2{fill:url(#SVGID_2_);}
	.st3{fill:url(#SVGID_3_);}
</style>
<path class="st0" d="M-28.7,334.4c-22.3,9.7-55,15.9-89.8,16.9l-2.7,0.1l-8-20l-8,20l-2.7-0.1c-34.8-1-67.5-7.2-89.8-16.9l-9.5-4
	c0,0,2.1,8.5,5.8,13.6c5,6.8,14.1,18.1,14.1,18.1c1,1.3,15.2,19.1,15.2,19.1c7.4,9.5,24.4,16.9,46.7,20.4l-5.7,14.2l33.9-16.9
	l33.9,16.9l-5.7-14.2c22.3-3.5,39.3-10.9,46.7-20.4c0,0,14.2-17.9,15.2-19.1c0,0,9.1-11.3,14.1-18.1c3.8-5.1,5.8-13.6,5.8-13.6
	L-28.7,334.4z"/>
<linearGradient id="SVGID_1_" gradientUnits="userSpaceOnUse" x1="-231.7" y1="435.7" x2="-26.8" y2="435.7" gradientTransform="matrix(1 0 0 -1 0 803.6)">
	<stop  offset="0" style="stop-color:#2E368F"/>
	<stop  offset="0.4692" style="stop-color:#31ACE3"/>
	<stop  offset="1" style="stop-color:#2F358F"/>
</linearGradient>
<path class="st1" d="M-151,383.6c-30.7-3-55.1-12.2-64.3-24c16.9,7.4,40.9,12.6,68.2,14.2L-151,383.6z M-140.1,356.4
	c-36.8-1.1-69.3-7.6-91.6-17.4c12,15.4,45.6,27,86.8,29.3L-140.1,356.4z M-153.2,389.1c-18.6-1.8-34.9-5.7-46.9-11
	c6.6,8.5,22.9,15.4,43.8,18.6L-153.2,389.1z M-118.4,356.4l4.8,12c41.2-2.4,74.9-14,86.8-29.3C-49,348.8-81.6,355.3-118.4,356.4z
	 M-102.2,396.8c20.9-3.2,37.2-10.1,43.8-18.6c-12,5.2-28.3,9.1-46.9,11L-102.2,396.8z M-107.4,383.6c30.7-3,55.1-12.2,64.3-24
	C-60,367-84,372.2-111.3,373.8L-107.4,383.6z"/>
<linearGradient id="SVGID_2_" gradientUnits="userSpaceOnUse" x1="-129.25" y1="399.2921" x2="-129.25" y2="458.2973" gradientTransform="matrix(1 0 0 -1 0 803.6)">
	<stop  offset="2.049180e-03" style="stop-color:#B03524"/>
	<stop  offset="0.1462" style="stop-color:#C03C25"/>
	<stop  offset="0.4065" style="stop-color:#D74725"/>
	<stop  offset="0.6596" style="stop-color:#E74F25"/>
	<stop  offset="0.8955" style="stop-color:#F05224"/>
</linearGradient>
<polygon class="st2" points="-153.6,405.5 -129.2,393.4 -104.9,405.5 -129.2,344.8 "/>
<polygon class="st0" points="-141.3,391.2 -129.2,385.2 -117.2,391.2 -129.2,361.1 "/>
<linearGradient id="SVGID_3_" gradientUnits="userSpaceOnUse" x1="-128.395" y1="425.6545" x2="-121.1547" y2="428.1569" gradientTransform="matrix(1 0 0 -1 0 803.6)">
	<stop  offset="0" style="stop-color:#ACDDF7"/>
	<stop  offset="0.668" style="stop-color:#FFFFFF"/>
</linearGradient>
<polygon class="st3" points="-129.2,385.2 -117.2,391.2 -129.2,361.1 "/>
<g>
	<g>
		<path class="st0" d="M-161.9,430.6v-0.8c-2.4-0.2-3.9-1.3-3.9-3.2c0-1.8,1.4-3,3.9-3.2v-0.8h1.7v0.8c2.4,0.2,3.9,1.3,3.9,3.2
			s-1.4,3-3.9,3.2v0.8H-161.9z M-161.9,428.3V425c-1.4,0.2-2.1,0.8-2.1,1.7C-164,427.6-163.3,428.1-161.9,428.3z M-160.2,425v3.3
			c1.4-0.2,2.1-0.8,2.1-1.7S-158.8,425.1-160.2,425z"/>
		<path class="st0" d="M-155.1,430.6v-8h5.7v1.5h-4v1.7h3.9v1.5h-3.9v1.8h4v1.5H-155.1z"/>
		<path class="st0" d="M-148.6,429.3c0.8-0.1,1.3-0.4,1.5-2.5l0.5-4.1h5.7v6.5h0.7v3h-1.7v-1.5h-5v1.5h-1.7V429.3z M-146.3,429.1
			h3.7v-5h-2.4l-0.3,2.7C-145.5,427.9-145.8,428.7-146.3,429.1z"/>
		<path class="st0" d="M-139.2,430.6v-8h5.7v1.5h-4v1.7h3.9v1.5h-3.9v1.8h4v1.5H-139.2z"/>
		<path class="st0" d="M-132.2,430.6v-8h3.8c1.7,0,2.7,1.2,2.7,2.6c0,1.4-1,2.6-2.7,2.6h-2v2.8H-132.2z M-127.5,425.2
			c0-0.7-0.5-1.1-1.2-1.1h-1.8v2.2h1.8C-128,426.3-127.5,425.9-127.5,425.2z"/>
		<path class="st0" d="M-120,430.6l-0.5-1.4h-3.4l-0.5,1.4h-1.9l3.1-8h2.1l3.1,8H-120z M-122.2,424.3l-1.3,3.5h2.5L-122.2,424.3z"/>
		<path class="st0" d="M-111.1,430.6h-6.2v-8h1.7v6.5h3.8v-6.5h1.7v6.5h0.7v3h-1.7V430.6z"/>
		<path class="st0" d="M-108.4,430.6v-8h1.7v5.2l3.7-5.2h1.8v8h-1.7v-5.4l-3.8,5.4H-108.4z"/>
		<path class="st0" d="M-100,430.6l1.8-3.1c-0.9-0.2-1.8-1-1.8-2.4c0-1.5,1-2.6,2.7-2.6h3.8v8h-1.7v-2.7h-1.2l-1.6,2.8H-100z
			 M-95.2,426.3v-2.2H-97c-0.7,0-1.2,0.4-1.2,1.1c0,0.7,0.5,1.1,1.2,1.1H-95.2z"/>
		<path class="st0" d="M-179.1,444.2l-2.4-3.2l-0.6,0.7v2.5h-1.7v-8h1.7v3.6l2.8-3.6h2.1l-3.2,3.8l3.4,4.3h-2.1V444.2z"/>
		<path class="st0" d="M-177.1,440.2c0-2.4,1.8-4.1,4.2-4.1s4.2,1.7,4.2,4.1c0,2.4-1.8,4.1-4.2,4.1
			C-175.4,444.3-177.1,442.6-177.1,440.2z M-170.5,440.2c0-1.5-1-2.6-2.4-2.6c-1.4,0-2.4,1.1-2.4,2.6s1,2.6,2.4,2.6
			C-171.5,442.8-170.5,441.7-170.5,440.2z"/>
		<path class="st0" d="M-160.6,444.2v-5.6l-2.3,5.6h-0.7l-2.3-5.6v5.6h-1.7v-8h2.4l1.9,4.8l1.9-4.8h2.4v8H-160.6z"/>
		<path class="st0" d="M-151.8,444.2v-6.5h-3.8v6.5h-1.7v-8h7.2v8H-151.8z"/>
		<path class="st0" d="M-146.8,436.2v2.8h2c1.7,0,2.7,1.2,2.7,2.6c0,1.4-0.9,2.6-2.7,2.6h-3.8v-8L-146.8,436.2L-146.8,436.2z
			 M-146.8,440.5v2.2h1.8c0.7,0,1.2-0.4,1.2-1.1c0-0.7-0.5-1.1-1.2-1.1L-146.8,440.5L-146.8,440.5z"/>
		<path class="st0" d="M-138,440.8h-1.3v3.4h-1.7v-8h1.7v3.1h1.3c0.4-1.9,2-3.3,4.1-3.3c2.4,0,4.2,1.7,4.2,4.1
			c0,2.4-1.8,4.1-4.2,4.1C-136,444.3-137.7,442.9-138,440.8z M-131.4,440.2c0-1.5-1-2.6-2.4-2.6c-1.5,0-2.4,1.1-2.4,2.6
			s0.9,2.6,2.4,2.6C-132.4,442.8-131.4,441.7-131.4,440.2z"/>
		<path class="st0" d="M-126.9,444.2v-6.5h-2.3v-1.5h6.4v1.5h-2.3v6.5H-126.9z"/>
		<path class="st0" d="M-121.7,444.2v-8h5.7v1.5h-4v1.7h3.9v1.5h-3.9v1.8h4v1.5H-121.7z"/>
		<path class="st0" d="M-114.7,444.2v-8h3.8c1.7,0,2.7,1.2,2.7,2.6s-1,2.6-2.7,2.6h-2v2.8L-114.7,444.2L-114.7,444.2z M-110,438.7
			c0-0.7-0.5-1.1-1.2-1.1h-1.8v2.2h1.8C-110.5,439.8-110,439.4-110,438.7z"/>
		<path class="st0" d="M-101.7,444.2v-3.4h-3.8v3.4h-1.7v-8h1.7v3.1h3.8v-3.1h1.7v8H-101.7z"/>
		<path class="st0" d="M-98.8,440.2c0-2.4,1.8-4.1,4.2-4.1s4.2,1.7,4.2,4.1c0,2.4-1.8,4.1-4.2,4.1S-98.8,442.6-98.8,440.2z
			 M-92.2,440.2c0-1.5-1-2.6-2.4-2.6c-1.5,0-2.4,1.1-2.4,2.6s1,2.6,2.4,2.6C-93.1,442.8-92.2,441.7-92.2,440.2z"/>
		<path class="st0" d="M-89.2,444.2v-8h5.7v1.5h-4v6.5H-89.2z"/>
		<path class="st0" d="M-83,440.2c0-2.4,1.8-4.1,4.2-4.1s4.2,1.7,4.2,4.1c0,2.4-1.8,4.1-4.2,4.1S-83,442.6-83,440.2z M-76.4,440.2
			c0-1.5-1-2.6-2.4-2.6c-1.5,0-2.4,1.1-2.4,2.6s1,2.6,2.4,2.6S-76.4,441.7-76.4,440.2z"/>
		<path class="st0" d="M-153.1,453.7c0-2.5,1.9-4.1,4.3-4.1c1.8,0,2.8,1,3.4,2l-1.5,0.7c-0.3-0.6-1.1-1.2-1.9-1.2
			c-1.5,0-2.5,1.1-2.5,2.6s1.1,2.6,2.5,2.6c0.8,0,1.6-0.5,1.9-1.2l1.5,0.7c-0.6,1-1.6,2-3.4,2C-151.3,457.9-153.1,456.2-153.1,453.7
			z"/>
		<path class="st0" d="M-139,457.7v-6.5h-3.8v6.5h-1.7v-8h7.2v8H-139z"/>
		<path class="st0" d="M-136.1,453.7c0-2.4,1.8-4.1,4.2-4.1c2.4,0,4.2,1.7,4.2,4.1c0,2.4-1.8,4.1-4.2,4.1
			C-134.3,457.9-136.1,456.1-136.1,453.7z M-129.4,453.7c0-1.5-1-2.6-2.4-2.6c-1.5,0-2.4,1.1-2.4,2.6s1,2.6,2.4,2.6
			S-129.4,455.2-129.4,453.7z"/>
		<path class="st0" d="M-126.5,457.7v-8h3.8c1.7,0,2.7,1.2,2.7,2.6s-1,2.6-2.7,2.6h-2v2.8L-126.5,457.7L-126.5,457.7z M-121.8,452.3
			c0-0.7-0.5-1.1-1.2-1.1h-1.8v2.2h1.8C-122.3,453.4-121.8,452.9-121.8,452.3z"/>
		<path class="st0" d="M-117.1,457.7v-6.5h-2.3v-1.5h6.4v1.5h-2.3v6.5H-117.1z"/>
		<path class="st0" d="M-107.2,457.7l-0.5-1.4h-3.4l-0.5,1.4h-1.9l3.1-8h2.1l3.1,8H-107.2z M-109.4,451.4l-1.3,3.5h2.5L-109.4,451.4
			z"/>
		<path class="st0" d="M-154,471.2v-8h3.8c1.7,0,2.7,1.2,2.7,2.6s-1,2.6-2.7,2.6h-2v2.8L-154,471.2L-154,471.2z M-149.3,465.8
			c0-0.7-0.5-1.1-1.2-1.1h-1.8v2.2h1.8C-149.8,466.9-149.3,466.5-149.3,465.8z"/>
		<path class="st0" d="M-146.9,467.2c0-2.4,1.8-4.1,4.2-4.1c2.4,0,4.2,1.7,4.2,4.1c0,2.4-1.8,4.1-4.2,4.1
			C-145.1,471.4-146.9,469.7-146.9,467.2z M-140.3,467.2c0-1.5-1-2.6-2.4-2.6c-1.4,0-2.4,1.1-2.4,2.6s0.9,2.6,2.4,2.6
			S-140.3,468.7-140.3,467.2z"/>
		<path class="st0" d="M-137.7,467.2c0-2.5,1.9-4.1,4.3-4.1c1.8,0,2.8,1,3.4,2l-1.5,0.7c-0.3-0.6-1.1-1.2-1.9-1.2
			c-1.5,0-2.5,1.1-2.5,2.6s1.1,2.6,2.5,2.6c0.8,0,1.6-0.5,1.9-1.2l1.5,0.7c-0.6,1-1.6,2-3.4,2C-135.8,471.4-137.7,469.7-137.7,467.2
			z"/>
		<path class="st0" d="M-129.4,467.2c0-2.5,1.9-4.1,4.3-4.1c1.8,0,2.8,1,3.4,2l-1.5,0.7c-0.3-0.6-1.1-1.2-1.9-1.2
			c-1.5,0-2.5,1.1-2.5,2.6s1.1,2.6,2.5,2.6c0.8,0,1.6-0.5,1.9-1.2l1.5,0.7c-0.6,1-1.6,2-3.4,2C-127.6,471.4-129.4,469.7-129.4,467.2
			z"/>
		<path class="st0" d="M-120.8,471.2v-8h1.7v5.2l3.7-5.2h1.8v8h-1.7v-5.4l-3.8,5.4H-120.8z"/>
		<path class="st0" d="M-112,471.2v-8h1.7v5.2l3.7-5.2h1.8v8h-1.7v-5.4l-3.8,5.4H-112z"/>
	</g>
</g>
</svg>
