<svg width="190" height="54" viewBox="0 0 190 54" fill="none" xmlns="http://www.w3.org/2000/svg">
<g clip-path="url(#clip0_1196_23855)">
<path d="M81.4286 39.3582H75.238L66.4297 14.0439H70.993L78.0326 34.9058H78.7401L86.0273 14.0439H90.5199L81.4286 39.3582Z" fill="white"/>
<path d="M102.304 26.2522L113.766 39.3582H108.176L98.8375 28.5144H97.7762V39.3582H93.5312V14.0439H97.7762V24.3492H98.8021L107.646 14.0439H112.881L102.304 26.2522Z" fill="white"/>
<path d="M123.863 39.3582V14.0439H132.707C134.405 14.0439 135.938 14.415 137.306 15.1571C138.697 15.8752 139.782 16.8806 140.56 18.1732C141.338 19.4659 141.728 20.938 141.728 22.5898C141.728 24.2175 141.338 25.6897 140.56 27.0063C139.782 28.2989 138.697 29.3163 137.306 30.0584C135.938 30.7765 134.405 31.1356 132.707 31.1356H128.108V39.3582H123.863ZM132.707 27.1858C134.099 27.1858 135.219 26.7669 136.068 25.9291C136.94 25.0673 137.376 23.9542 137.376 22.5898C137.376 21.2253 136.94 20.1242 136.068 19.2863C135.219 18.4246 134.099 17.9937 132.707 17.9937H128.108V27.1858H132.707Z" fill="white"/>
<path d="M149.174 39.3582H145.105V14.0439H149.174V39.3582Z" fill="white"/>
<path d="M161.444 20.3269C163.802 20.3269 165.653 21.0809 166.997 22.589C168.365 24.0731 169.049 26.1677 169.049 28.8727V39.3575H166.042L165.193 36.4131C164.675 37.2988 163.908 38.0768 162.894 38.7471C161.88 39.3934 160.677 39.7165 159.286 39.7165C158.059 39.7165 156.951 39.4652 155.96 38.9625C154.994 38.4598 154.239 37.7537 153.696 36.844C153.154 35.9344 152.883 34.905 152.883 33.756C152.883 31.9846 153.567 30.5723 154.935 29.519C156.326 28.4418 158.342 27.9032 160.984 27.9032H164.946C164.851 26.6584 164.474 25.677 163.814 24.9589C163.177 24.2168 162.316 23.8458 161.231 23.8458C160.359 23.8458 159.604 24.0612 158.967 24.4921C158.331 24.923 157.859 25.4496 157.552 26.072L153.803 25.4257C154.251 23.8458 155.171 22.601 156.562 21.6914C157.977 20.7817 159.604 20.3269 161.444 20.3269ZM160.241 36.2336C161.656 36.2336 162.8 35.7668 163.672 34.8332C164.545 33.8997 164.981 32.6668 164.981 31.1348H161.125C158.366 31.1348 156.986 31.9487 156.986 33.5765C156.986 34.3904 157.281 35.0367 157.871 35.5155C158.461 35.9942 159.25 36.2336 160.241 36.2336Z" fill="white"/>
<path d="M185.862 20.6856H190.001L182.466 41.6911C181.83 43.4623 181.004 44.7433 179.99 45.5332C179 46.3232 177.667 46.7181 175.993 46.7181H173.198L172.844 42.9479H176.276C176.96 42.9479 177.479 42.7922 177.832 42.481C178.21 42.1938 178.528 41.6791 178.787 40.937L179 40.3625L170.828 20.6856H175.179L180.592 34.1506H181.158L185.862 20.6856Z" fill="white"/>
<path d="M47.1999 4.73048C43.5427 0.964294 37.8588 0.964294 26.4912 0.964294H24.4154C13.0479 0.964294 7.36417 0.964294 3.65737 4.73048C0 8.44647 0 14.2213 0 25.7709V27.88C0 39.4296 0 45.2043 3.7068 48.9708C7.41361 52.7368 13.0974 52.7368 24.4648 52.7368H26.5407C37.9082 52.7368 43.592 52.7368 47.2986 48.9708C51.0055 45.2043 51.0055 39.4296 51.0055 27.88V25.7709C50.9068 14.2213 50.9068 8.44647 47.1999 4.73048ZM4.74471 5.78503C8.00668 2.47077 13.4927 2.47077 24.4154 2.47077H26.4912C37.414 2.47077 42.9495 2.47077 46.1621 5.78503C48.2377 7.89409 48.9793 10.9572 49.2759 15.8282H1.63099C1.87811 10.9572 2.66889 7.89409 4.74471 5.78503ZM42.307 27.3778C42.307 31.4453 39.0449 34.7596 35.0416 34.7596C31.0383 34.7596 27.7763 31.4453 27.7763 27.3778C27.7763 23.3103 31.0383 19.9961 35.0416 19.9961C39.0449 19.9961 42.307 23.3103 42.307 27.3778ZM23.2787 30.9431L19.7202 34.5587L16.2111 30.9934L12.7019 34.5587L9.14344 30.9431L12.6525 27.3778L9.14344 23.8125L12.7019 20.197L16.2111 23.7623L19.7202 20.197L23.2787 23.8125L19.7696 27.3778L23.2787 30.9431ZM46.1621 47.866C42.9002 51.1803 37.414 51.1803 26.4912 51.1803H24.4154C13.4927 51.1803 7.95727 51.1803 4.74471 47.866C2.42178 45.5058 1.77926 41.9906 1.58157 36.0652C7.95727 39.0279 16.3099 40.8357 25.4533 40.8357C34.5968 40.8357 42.9495 39.0279 49.3252 36.0652C49.1767 41.9906 48.4849 45.5058 46.1621 47.866Z" fill="white"/>
<path d="M35.0405 29.6367C36.2688 29.6367 37.2646 28.625 37.2646 27.377C37.2646 26.129 36.2688 25.1173 35.0405 25.1173C33.8122 25.1173 32.8164 26.129 32.8164 27.377C32.8164 28.625 33.8122 29.6367 35.0405 29.6367Z" fill="white"/>
</g>
<defs>
<clipPath id="clip0_1196_23855">
<rect width="190" height="54" fill="white"/>
</clipPath>
</defs>
</svg>
